<svg width="28" height="28" viewBox="0 0 28 28" fill="none" xmlns="http://www.w3.org/2000/svg">
<path fill-rule="evenodd" clip-rule="evenodd" d="M27.9811 13.7907C27.9811 21.4071 21.7173 27.5814 13.9906 27.5814C6.26378 27.5814 0 21.4071 0 13.7907C0 6.1743 6.26378 0 13.9906 0C21.7173 0 27.9811 6.1743 27.9811 13.7907ZM26.8619 13.7907C26.8619 20.7978 21.0992 26.4781 13.9906 26.4781C6.88193 26.4781 1.11924 20.7978 1.11924 13.7907C1.11924 6.78361 6.88193 1.10326 13.9906 1.10326C21.0992 1.10326 26.8619 6.78361 26.8619 13.7907ZM11.7521 11.0326V11.5842H12.8713V20.4102H11.7521V20.9618H12.8713H15.1098H16.229V20.4102H15.1098V11.0326H12.8713H11.7521ZM15.6694 8.27441C15.6694 9.18838 14.9178 9.9293 13.9906 9.9293C13.0633 9.9293 12.3117 9.18838 12.3117 8.27441C12.3117 7.36045 13.0633 6.61953 13.9906 6.61953C14.9178 6.61953 15.6694 7.36045 15.6694 8.27441Z" fill="white"/>
</svg>
