<svg width="29" height="28" viewBox="0 0 29 28" fill="none" xmlns="http://www.w3.org/2000/svg">
<path fill-rule="evenodd" clip-rule="evenodd" d="M28.9772 13.7925C28.9772 21.4089 22.7134 27.5832 14.9866 27.5832C7.25988 27.5832 0.996094 21.4089 0.996094 13.7925C0.996094 6.17613 7.25988 0.00183105 14.9866 0.00183105C22.7134 0.00183105 28.9772 6.17613 28.9772 13.7925ZM27.858 13.7925C27.858 20.7996 22.0953 26.48 14.9866 26.48C7.87802 26.48 2.11534 20.7996 2.11534 13.7925C2.11534 6.78544 7.87802 1.10509 14.9866 1.10509C22.0953 1.10509 27.858 6.78544 27.858 13.7925ZM12.7482 11.0344V11.586H13.8674V20.4121H12.7482V20.9637H13.8674H16.1059H17.2251V20.4121H16.1059V11.0344H13.8674H12.7482ZM16.6655 8.27625C16.6655 9.19021 15.9139 9.93113 14.9866 9.93113C14.0594 9.93113 13.3078 9.19021 13.3078 8.27625C13.3078 7.36228 14.0594 6.62136 14.9866 6.62136C15.9139 6.62136 16.6655 7.36228 16.6655 8.27625Z" fill="#2B4074"/>
</svg>
