<svg width="28" height="28" viewBox="0 0 28 28" fill="none" xmlns="http://www.w3.org/2000/svg">
<path fill-rule="evenodd" clip-rule="evenodd" d="M18.9602 3.49677C22.8022 7.33875 23.0891 13.4052 19.8498 17.6738L28.1973 26.0213L26.2187 27.9999L17.8922 19.6734C13.6154 23.0661 7.42611 22.8282 3.52744 18.9296C-0.673332 14.7288 -0.623979 7.86866 3.63767 3.60701C7.89932 -0.65464 14.7595 -0.703993 18.9602 3.49677ZM18.1688 4.2882C21.9387 8.05812 21.8944 14.2147 18.0699 18.0392C14.2453 21.8638 8.08878 21.9081 4.31886 18.1381C0.548941 14.3682 0.593232 8.21168 4.41779 4.38713C8.24234 0.562572 14.3989 0.518281 18.1688 4.2882Z" fill="#2B4074"/>
</svg>
